<svg width="805" height="600"><rect width="805" height="600" x="0" y="0" fill="#FFFFFF" id="background"></rect><g id="series"><g transform="translate(0,0)"><g transform="translate(50,50)" clip-path="url(#serieClipPath)"><g id="axis"><g transform="translate(0,500)" fill="none" font-size="10" font-family="sans-serif" text-anchor="middle"><path class="domain" stroke="currentColor" d="M0.5,6V0.5H705.5V6"></path><g class="tick" opacity="1" transform="translate(0.5,0)"><line stroke="currentColor" y2="6"></line><text fill="currentColor" y="9" dy="0.71em">1</text></g><g class="tick" opacity="1" transform="translate(64.5,0)"><line stroke="currentColor" y2="6"></line><text fill="currentColor" y="9" dy="0.71em">2</text></g><g class="tick" opacity="1" transform="translate(128.5,0)"><line stroke="currentColor" y2="6"></line><text fill="currentColor" y="9" dy="0.71em">3</text></g><g class="tick" opacity="1" transform="translate(192.5,0)"><line stroke="currentColor" y2="6"></line><text fill="currentColor" y="9" dy="0.71em">4</text></g><g class="tick" opacity="1" transform="translate(256.5,0)"><line stroke="currentColor" y2="6"></line><text fill="currentColor" y="9" dy="0.71em">5</text></g><g class="tick" opacity="1" transform="translate(320.5,0)"><line stroke="currentColor" y2="6"></line><text fill="currentColor" y="9" dy="0.71em">6</text></g><g class="tick" opacity="1" transform="translate(385.5,0)"><line stroke="currentColor" y2="6"></line><text fill="currentColor" y="9" dy="0.71em">7</text></g><g class="tick" opacity="1" transform="translate(449.5,0)"><line stroke="currentColor" y2="6"></line><text fill="currentColor" y="9" dy="0.71em">8</text></g><g class="tick" opacity="1" transform="translate(513.5,0)"><line stroke="currentColor" y2="6"></line><text fill="currentColor" y="9" dy="0.71em">9</text></g><g class="tick" opacity="1" transform="translate(577.5,0)"><line stroke="currentColor" y2="6"></line><text fill="currentColor" y="9" dy="0.71em">10</text></g><g class="tick" opacity="1" transform="translate(641.5,0)"><line stroke="currentColor" y2="6"></line><text fill="currentColor" y="9" dy="0.71em">11</text></g><g class="tick" opacity="1" transform="translate(705.5,0)"><line stroke="currentColor" y2="6"></line><text fill="currentColor" y="9" dy="0.71em">12</text></g><text x="705" dy="-5" text-anchor="end" style="font-family: Arial, sans-serif; font-size: 12px; fill: rgb(123, 123, 123); font-weight: bold;">size</text></g><g fill="none" font-size="10" font-family="sans-serif" text-anchor="end"><path class="domain" stroke="currentColor" d="M-6,500.5H0.5V0.5H-6"></path><g class="tick" opacity="1" transform="translate(0,500.5)"><line stroke="currentColor" x2="-6"></line><text fill="currentColor" x="-9" dy="0.32em">1.0</text></g><g class="tick" opacity="1" transform="translate(0,455.5)"><line stroke="currentColor" x2="-6"></line><text fill="currentColor" x="-9" dy="0.32em">1.5</text></g><g class="tick" opacity="1" transform="translate(0,409.5)"><line stroke="currentColor" x2="-6"></line><text fill="currentColor" x="-9" dy="0.32em">2.0</text></g><g class="tick" opacity="1" transform="translate(0,364.5)"><line stroke="currentColor" x2="-6"></line><text fill="currentColor" x="-9" dy="0.32em">2.5</text></g><g class="tick" opacity="1" transform="translate(0,318.5)"><line stroke="currentColor" x2="-6"></line><text fill="currentColor" x="-9" dy="0.32em">3.0</text></g><g class="tick" opacity="1" transform="translate(0,273.5)"><line stroke="currentColor" x2="-6"></line><text fill="currentColor" x="-9" dy="0.32em">3.5</text></g><g class="tick" opacity="1" transform="translate(0,227.5)"><line stroke="currentColor" x2="-6"></line><text fill="currentColor" x="-9" dy="0.32em">4.0</text></g><g class="tick" opacity="1" transform="translate(0,182.5)"><line stroke="currentColor" x2="-6"></line><text fill="currentColor" x="-9" dy="0.32em">4.5</text></g><g class="tick" opacity="1" transform="translate(0,136.5)"><line stroke="currentColor" x2="-6"></line><text fill="currentColor" x="-9" dy="0.32em">5.0</text></g><g class="tick" opacity="1" transform="translate(0,91.5)"><line stroke="currentColor" x2="-6"></line><text fill="currentColor" x="-9" dy="0.32em">5.5</text></g><g class="tick" opacity="1" transform="translate(0,45.5)"><line stroke="currentColor" x2="-6"></line><text fill="currentColor" x="-9" dy="0.32em">6.0</text></g><g class="tick" opacity="1" transform="translate(0,0.5)"><line stroke="currentColor" x2="-6"></line><text fill="currentColor" x="-9" dy="0.32em">6.5</text></g><text x="4" text-anchor="start" dominant-baseline="hanging" style="font-family: Arial, sans-serif; font-size: 12px; fill: rgb(123, 123, 123); font-weight: bold;">price</text></g></g><g id="viz"><g><circle cx="705" cy="482" fill="rgb(158, 1, 66)" r="8" stroke="none"></circle></g><g><circle cx="705" cy="391" fill="rgb(251, 248, 176)" r="8" stroke="none"></circle></g><g><circle cx="577" cy="409" fill="rgb(158, 1, 66)" r="7" stroke="none"></circle></g><g><circle cx="577" cy="209" fill="rgb(251, 248, 176)" r="7" stroke="none"></circle></g><g><circle cx="577" cy="27" fill="rgb(94, 79, 162)" r="7" stroke="none"></circle></g><g><circle cx="32" cy="391" fill="rgb(94, 79, 162)" r="3" stroke="none"></circle></g><g><circle cx="19" cy="409" fill="rgb(251, 248, 176)" r="2" stroke="none"></circle></g><g id="labels"><g transform="translate(705,482)"><text x="0" y="0" text-anchor="middle" dominant-baseline="text-before-edge" transform="translate(0,0)"><tspan x="0" y="0" dy="0"></tspan></text></g><g transform="translate(705,391)"><text x="0" y="0" text-anchor="middle" dominant-baseline="text-before-edge" transform="translate(0,0)"><tspan x="0" y="0" dy="0"></tspan></text></g><g transform="translate(577,409)"><text x="0" y="0" text-anchor="middle" dominant-baseline="text-before-edge" transform="translate(0,0)"><tspan x="0" y="0" dy="0"></tspan></text></g><g transform="translate(577,209)"><text x="0" y="0" text-anchor="middle" dominant-baseline="text-before-edge" transform="translate(0,0)"><tspan x="0" y="0" dy="0"></tspan></text></g><g transform="translate(577,27)"><text x="0" y="0" text-anchor="middle" dominant-baseline="text-before-edge" transform="translate(0,0)"><tspan x="0" y="0" dy="0"></tspan></text></g><g transform="translate(32,391)"><text x="0" y="0" text-anchor="middle" dominant-baseline="text-before-edge" transform="translate(0,0)"><tspan x="0" y="0" dy="0"></tspan></text></g><g transform="translate(19,409)"><text x="0" y="0" text-anchor="middle" dominant-baseline="text-before-edge" transform="translate(0,0)"><tspan x="0" y="0" dy="0"></tspan></text></g></g></g></g><text y="4" x="4" style="font-family: Arial, sans-serif; font-size: 12px; fill: black; font-weight: bold; dominant-baseline: hanging;"></text></g></g><g id="grid"><rect x="0" y="0" width="805" height="600" fill="none" stroke="#ccc"></rect></g><clipPath id="serieClipPath"><rect x="-50" y="-50" width="805" height="600"></rect></clipPath></svg>